<svg width="47" height="46" viewBox="0 0 47 46" fill="none" xmlns="http://www.w3.org/2000/svg">
<g clip-path="url(#clip0_7063_71)">
<path d="M23.3984 46C36.0576 46 46.3984 35.6408 46.3984 23C46.3984 10.3408 36.0392 0 23.3984 0C10.7392 0 0.398438 10.3592 0.398438 23C0.398438 35.6592 10.7576 46 23.3984 46Z" fill="url(#paint0_linear_7063_71)"/>
<path d="M30.0574 27.9682L36.571 24.2146C36.9206 24.0122 37.123 23.6442 37.123 23.2394V15.7322C37.123 15.3274 36.9022 14.9594 36.571 14.757L30.0574 11.0034C29.7078 10.801 29.2846 10.801 28.935 11.0034L22.4214 14.757C22.0718 14.9594 21.8694 15.3274 21.8694 15.7322V29.1642L17.3062 31.7954L12.743 29.1642V23.9018L17.3062 21.2706L20.3238 23.0002V19.4674L17.8766 18.0506C17.711 17.9586 17.5086 17.9034 17.3246 17.9034C17.1222 17.9034 16.9382 17.9586 16.7726 18.0506L10.259 21.8042C9.90943 22.0066 9.70703 22.3746 9.70703 22.7794V30.2866C9.70703 30.6914 9.92783 31.0594 10.259 31.2618L16.7726 35.0154C17.1222 35.2178 17.5454 35.2178 17.895 35.0154L24.4086 31.2618C24.7582 31.0594 24.9606 30.6914 24.9606 30.2866V16.8546L25.0342 16.7994L29.5238 14.205L34.087 16.8362V22.0986L29.5238 24.7298L26.5246 23.0002V26.533L28.9718 27.9498C29.3214 28.1522 29.7446 28.1522 30.0942 27.9498L30.0574 27.9682Z" fill="white"/>
</g>
<defs>
<linearGradient id="paint0_linear_7063_71" x1="-8.01466" y1="3.73541" x2="39.4205" y2="32.8258" gradientUnits="userSpaceOnUse">
<stop stop-color="#A229C5"/>
<stop offset="1" stop-color="#7B3FE4"/>
</linearGradient>
<clipPath id="clip0_7063_71">
<rect width="46" height="46" fill="white" transform="translate(0.398438)"/>
</clipPath>
</defs>
</svg>
